<svg xmlns="http://www.w3.org/2000/svg" viewBox="0 0 400 250">
  <defs>
    <linearGradient id="sky" x1="0" y1="0" x2="0" y2="1">
      <stop offset="0%" stop-color="#9be7ff"/>
      <stop offset="100%" stop-color="#dff7ff"/>
    </linearGradient>
    <linearGradient id="grass" x1="0" y1="0" x2="1" y2="1">
      <stop offset="0%" stop-color="#b8f3c0"/>
      <stop offset="100%" stop-color="#58c96d"/>
    </linearGradient>
  </defs>
  <rect width="400" height="250" rx="28" fill="url(#sky)"/>
  <circle cx="330" cy="52" r="28" fill="#ffd76a" opacity="0.95"/>
  <path d="M0 182 C70 156 110 194 176 178 C238 163 292 145 400 176 V250 H0 Z" fill="url(#grass)"/>
  <rect x="58" y="104" width="112" height="88" rx="14" fill="#fffaf3"/>
  <rect x="178" y="92" width="132" height="100" rx="14" fill="#fefefe"/>
  <path d="M44 114 L114 62 L184 114 Z" fill="#dc4d3f"/>
  <path d="M166 102 L244 54 L322 102 Z" fill="#b83b30"/>
  <rect x="88" y="132" width="22" height="22" rx="4" fill="#6ec6ff"/>
  <rect x="122" y="132" width="22" height="22" rx="4" fill="#6ec6ff"/>
  <rect x="74" y="158" width="56" height="34" rx="8" fill="#e9eef3"/>
  <rect x="200" y="122" width="28" height="24" rx="4" fill="#7dd3fc"/>
  <rect x="238" y="122" width="28" height="24" rx="4" fill="#7dd3fc"/>
  <rect x="276" y="122" width="18" height="56" rx="5" fill="#f1f5f9"/>
  <rect x="206" y="154" width="58" height="38" rx="8" fill="#e9eef3"/>
  <path d="M208 192 h54" stroke="#cbd5e1" stroke-width="6" stroke-linecap="round"/>
  <text x="200" y="229" text-anchor="middle" fill="#184e77" font-family="Segoe UI, Arial, sans-serif" font-size="24" font-weight="700">Villa</text>
</svg>
