<svg xmlns="http://www.w3.org/2000/svg" viewBox="0 0 400 250">
  <defs>
    <linearGradient id="sky" x1="0" y1="0" x2="0" y2="1">
      <stop offset="0%" stop-color="#d9f8ff"/>
      <stop offset="100%" stop-color="#f7fffb"/>
    </linearGradient>
    <linearGradient id="grass" x1="0" y1="0" x2="1" y2="1">
      <stop offset="0%" stop-color="#c7f3ad"/>
      <stop offset="100%" stop-color="#7dd56c"/>
    </linearGradient>
  </defs>
  <rect width="400" height="250" rx="28" fill="url(#sky)"/>
  <rect y="170" width="400" height="80" fill="url(#grass)"/>
  <path d="M70 182 L104 146 L138 182 Z" fill="#f59e0b"/>
  <path d="M145 180 L181 134 L217 180 Z" fill="#eab308"/>
  <path d="M222 182 L262 146 L302 182 Z" fill="#f59e0b"/>
  <rect x="82" y="182" width="44" height="34" rx="4" fill="#fef3c7"/>
  <rect x="160" y="182" width="42" height="40" rx="4" fill="#fef3c7"/>
  <rect x="242" y="182" width="44" height="34" rx="4" fill="#fef3c7"/>
  <path d="M44 154 C72 136 106 138 138 154" stroke="#10b981" stroke-width="8" stroke-linecap="round" fill="none"/>
  <path d="M168 158 C194 140 228 140 258 158" stroke="#10b981" stroke-width="8" stroke-linecap="round" fill="none"/>
  <path d="M258 154 C286 138 318 140 352 156" stroke="#10b981" stroke-width="8" stroke-linecap="round" fill="none"/>
  <circle cx="334" cy="52" r="24" fill="#fde68a"/>
  <text x="200" y="229" text-anchor="middle" fill="#166534" font-family="Segoe UI, Arial, sans-serif" font-size="24" font-weight="700">Plots</text>
</svg>
