<svg xmlns="http://www.w3.org/2000/svg" viewBox="0 0 400 250">
  <defs>
    <linearGradient id="bg" x1="0" y1="0" x2="1" y2="1">
      <stop offset="0%" stop-color="#eefcf4"/>
      <stop offset="100%" stop-color="#ffffff"/>
    </linearGradient>
  </defs>
  <rect width="400" height="250" rx="28" fill="url(#bg)"/>
  <path d="M0 186 C48 154 106 154 160 178 C214 202 292 206 400 164 V250 H0 Z" fill="#9ae6b4"/>
  <rect x="52" y="118" width="92" height="56" rx="10" fill="#ffffff"/>
  <path d="M44 126 L98 90 L152 126 Z" fill="#22c55e"/>
  <rect x="68" y="138" width="18" height="16" rx="4" fill="#86efac"/>
  <rect x="96" y="138" width="18" height="16" rx="4" fill="#86efac"/>
  <rect x="66" y="160" width="48" height="14" rx="4" fill="#e5e7eb"/>
  <rect x="180" y="112" width="150" height="70" rx="12" fill="#ffffff"/>
  <path d="M172 122 L252 74 L332 122 Z" fill="#16a34a"/>
  <rect x="202" y="132" width="28" height="22" rx="4" fill="#bbf7d0"/>
  <rect x="240" y="132" width="28" height="22" rx="4" fill="#bbf7d0"/>
  <rect x="280" y="132" width="20" height="34" rx="4" fill="#e5e7eb"/>
  <text x="200" y="229" text-anchor="middle" fill="#166534" font-family="Segoe UI, Arial, sans-serif" font-size="24" font-weight="700">Land</text>
</svg>
