<svg xmlns="http://www.w3.org/2000/svg" viewBox="0 0 400 250">
  <defs>
    <linearGradient id="bg" x1="0" y1="0" x2="1" y2="1">
      <stop offset="0%" stop-color="#dff4ff"/>
      <stop offset="100%" stop-color="#ffffff"/>
    </linearGradient>
  </defs>
  <rect width="400" height="250" rx="28" fill="url(#bg)"/>
  <rect y="188" width="400" height="62" fill="#cbd5e1"/>
  <rect x="44" y="104" width="84" height="84" rx="12" fill="#ffffff"/>
  <rect x="140" y="88" width="108" height="100" rx="12" fill="#f8fafc"/>
  <rect x="260" y="118" width="92" height="70" rx="12" fill="#ffffff"/>
  <path d="M34 114 L86 72 L138 114 Z" fill="#2563eb"/>
  <path d="M130 96 L194 52 L258 96 Z" fill="#0ea5e9"/>
  <path d="M250 128 L306 90 L362 128 Z" fill="#1d4ed8"/>
  <rect x="66" y="136" width="20" height="20" rx="4" fill="#93c5fd"/>
  <rect x="96" y="136" width="20" height="20" rx="4" fill="#93c5fd"/>
  <rect x="164" y="132" width="26" height="24" rx="4" fill="#bae6fd"/>
  <rect x="200" y="132" width="26" height="24" rx="4" fill="#bae6fd"/>
  <rect x="284" y="144" width="22" height="24" rx="4" fill="#cbd5e1"/>
  <rect x="314" y="144" width="22" height="24" rx="4" fill="#cbd5e1"/>
  <text x="200" y="229" text-anchor="middle" fill="#0f172a" font-family="Segoe UI, Arial, sans-serif" font-size="24" font-weight="700">Property</text>
</svg>
