<svg xmlns="http://www.w3.org/2000/svg" viewBox="0 0 400 250">
  <defs>
    <linearGradient id="bg" x1="0" y1="0" x2="1" y2="1">
      <stop offset="0%" stop-color="#dff3ff"/>
      <stop offset="100%" stop-color="#f8fbff"/>
    </linearGradient>
    <linearGradient id="roof" x1="0" y1="0" x2="1" y2="1">
      <stop offset="0%" stop-color="#fb7185"/>
      <stop offset="100%" stop-color="#e11d48"/>
    </linearGradient>
  </defs>
  <rect width="400" height="250" rx="28" fill="url(#bg)"/>
  <rect y="188" width="400" height="62" fill="#b7e4a8"/>
  <rect x="36" y="124" width="96" height="64" rx="10" fill="#ffffff"/>
  <path d="M28 132 L84 92 L140 132 Z" fill="url(#roof)"/>
  <rect x="68" y="142" width="22" height="20" rx="4" fill="#7dd3fc"/>
  <rect x="100" y="142" width="20" height="20" rx="4" fill="#7dd3fc"/>
  <rect x="58" y="164" width="52" height="24" rx="6" fill="#e2e8f0"/>
  <rect x="162" y="104" width="156" height="84" rx="12" fill="#fefefe"/>
  <path d="M154 114 L240 62 L326 114 Z" fill="#0f766e"/>
  <rect x="188" y="126" width="30" height="24" rx="4" fill="#94e2f5"/>
  <rect x="230" y="126" width="30" height="24" rx="4" fill="#94e2f5"/>
  <rect x="272" y="126" width="24" height="40" rx="5" fill="#eef2f7"/>
  <rect x="194" y="156" width="58" height="32" rx="7" fill="#e2e8f0"/>
  <rect x="258" y="156" width="30" height="32" rx="7" fill="#cbd5e1"/>
  <circle cx="340" cy="74" r="16" fill="#fde68a"/>
  <text x="200" y="229" text-anchor="middle" fill="#0f766e" font-family="Segoe UI, Arial, sans-serif" font-size="24" font-weight="700">Apartment</text>
</svg>
